<svg width="45" height="49" xmlns="http://www.w3.org/2000/svg">

 <g>
  <title>background</title>
  <rect fill="none" id="canvas_background" height="51" width="47" y="-1" x="-1"/>
 </g>
 <g>
  <title>Layer 1</title>
  <g stroke="null" id="svg_1">
   <g stroke="null" id="svg_2">
    <path stroke="null" id="svg_3" fill="#e6c897" d="m9.367918,13.632082l0,3.814676l4.331817,0l0,-3.814676c0,-5.128192 4.172074,-9.300356 9.300266,-9.300356l1.370926,-2.252203l-1.370926,-2.079524c-7.516778,0 -13.632082,6.115305 -13.632082,13.632082z"/>
    <path stroke="null" id="svg_4" fill="#c29578" d="m23.000001,0l0,4.331817c5.128192,0 9.300356,4.172164 9.300356,9.300356l0,3.814676l4.331727,0l0,-3.814676c0,-7.516867 -6.115305,-13.632172 -13.632082,-13.632172z"/>
   </g>
   <g stroke="null" id="svg_5">
    <path stroke="null" id="svg_6" fill="#fc445f" d="m0,27.420403l0,11.909418l6.654457,6.67018l16.345544,0l3.878106,-18.579598l-26.878106,0z"/>
    <path stroke="null" id="svg_7" fill="#e1105a" d="m46.000002,27.420403l-23.000001,0l0,18.579598l16.415262,0l6.584739,-6.582942l0,-11.996657z"/>
   </g>
   <g stroke="null" id="svg_8">
    <g stroke="null" id="svg_9">
     <g stroke="null" id="svg_10">
      <g stroke="null" id="svg_11">
       <path stroke="null" id="svg_12" fill="#fc445f" d="m16.469887,24.990759l-10.310649,0l0,-7.971207l10.310649,0l0,7.971207z"/>
      </g>
     </g>
     <g stroke="null" id="svg_13">
      <g stroke="null" id="svg_14">
       <path stroke="null" id="svg_15" fill="#e1105a" d="m39.840763,24.990759l-10.310649,0l0,-7.971207l10.310649,0l0,7.971207z"/>
      </g>
     </g>
    </g>
    <g stroke="null" id="svg_16">
     <g stroke="null" id="svg_17">
      <path stroke="null" id="svg_18" fill="#e1105a" d="m6.698571,46.000002l-6.698571,0l0,-6.701625l1.032215,0c3.124406,0 5.666356,2.543297 5.666356,5.66941l0,1.032215z"/>
     </g>
    </g>
   </g>
   <g stroke="null" id="svg_19">
    <g stroke="null" id="svg_20">
     <path stroke="null" id="svg_21" fill="#a1073d" d="m39.301431,44.967787c0,-3.126113 2.541949,-5.66941 5.666356,-5.66941l1.032215,0l0,6.701625l-6.698571,0l0,-1.032215z"/>
    </g>
   </g>
   <g stroke="null" id="svg_22">
    <path stroke="null" id="svg_23" fill="#e1105a" d="m0,21.030805l0,6.788684l18.640333,5.449653l4.359668,0l2.624516,-5.938313l-2.624516,-6.300024l-23.000001,0z"/>
    <path stroke="null" id="svg_24" fill="#a1073d" d="m23.000001,21.030805l0,12.238336l4.472871,0l18.52713,-5.449653l0,-6.788684l-23.000001,0z"/>
   </g>
   <g stroke="null" id="svg_25">
    <path stroke="null" id="svg_26" fill="#fef176" d="m18.640333,33.269142l0,1.096184c0,2.408082 1.957965,4.369461 4.359668,4.397672l1.908191,-5.493856l-6.26786,0z"/>
   </g>
   <path stroke="null" id="svg_27" fill="#fecb2e" d="m23.000001,33.269142l0,5.493856c0.01743,0.00018 0.03468,0.001348 0.052199,0.001348c2.425602,0 4.420672,-1.973328 4.420672,-4.39893l0,-1.096273l-4.472871,0z"/>
  </g>
 </g>
</svg>